<svg xmlns="http://www.w3.org/2000/svg" xmlns:xlink="http://www.w3.org/1999/xlink" viewBox="0 0 30.23 40.48"><defs><style>.cls-1{fill:#0fd355;}.cls-2{fill:#82dd70;}.cls-3{fill:#2eac5e;}</style><symbol id="Nuevo_símbolo_1" data-name="Nuevo símbolo 1" viewBox="0 0 30.23 40.48"><path class="cls-1" d="M19.27,39.53a9.61,9.61,0,0,1-4.16.95c-.3,0-.6,0-.9,0a9.59,9.59,0,0,1-3.26-.9l.55-3.18,4.85-2.85,2.36,2.85L19,37.85Z"/><path class="cls-2" d="M27.4,35.43l-1,.15-3.15-4.07V36a75.81,75.81,0,0,1-14.87.14q-2.81-.25-5.58-.71C.36,35-.8,32.83.6,31.21q1.73-2,3.47-4.1l2.14-2.58.08-.13,4.95-7.77L24,24.53,26,27q1.8,2.16,3.58,4.22C31,32.83,29.87,35,27.4,35.43Z"/><path class="cls-1" d="M26,27a3.67,3.67,0,0,1-.76.21,64.12,64.12,0,0,1-20.84,0l-.38-.08,2.14-2.58,5-7.9L24,24.53Z"/><path class="cls-2" d="M25.54,24.29a64.12,64.12,0,0,1-13.7.77l-1.22-4.84L9.05,24.86q-2.19-.21-4.36-.57c-2.09-.35-3.07-2.21-1.88-3.59Q5,18.2,7.15,15.54l1.16-1.42.83-1L14.2,8l6.89,5.06,2,2.45q2.19,2.66,4.34,5.16C28.6,22.08,27.62,23.95,25.54,24.29Z"/><path class="cls-1" d="M23.07,15.54a49.35,49.35,0,0,1-15.92,0l2-2.45L14.2,8l6.89,5.06Z"/><path class="cls-1" d="M12.23,15.38,8.07,24.76c-1.46-.14-1.93-.23-3.38-.46-2.09-.35-3.07-2.21-1.88-3.59Q5,18.2,7.15,15.54l1.16-1.42Z"/><path class="cls-1" d="M8.4,36.14h0q-2.81-.25-5.58-.71C.36,35-.8,32.83.6,31.21q1.73-2,3.47-4.1l2.14-2.58.08-.13,4.08,2.28S2.59,34.44,8.4,36.14Z"/><path class="cls-2" d="M23.14,12.8a49.31,49.31,0,0,1-11.33.55h0l-.44,0h-.17q-2.07-.16-4.11-.5C5.48,12.54,4.72,11.1,5.63,10c2.46-2.86,5-5.92,7.49-9.17A2.45,2.45,0,0,1,15,0,2.55,2.55,0,0,1,17.1.87c2.52,3.25,5,6.31,7.49,9.17C25.51,11.1,24.75,12.54,23.14,12.8Z"/><path class="cls-1" d="M15,0h0S7.35,12.82,11.19,13.3q-2.07-.16-4.11-.5C5.48,12.54,4.72,11.1,5.63,10c2.46-2.86,5-5.92,7.49-9.17A2.45,2.45,0,0,1,15,0Z"/><path class="cls-2" d="M19.27,39.53a9.61,9.61,0,0,1-4.16.95c-.3,0-.6,0-.9,0V37.85H19Z"/><path class="cls-3" d="M11.36,13.32l.44,0Z"/></symbol></defs><title>arbol</title><g id="Capa_2" data-name="Capa 2"><g id="Capa_2-2" data-name="Capa 2"><use width="30.23" height="40.48" xlink:href="#Nuevo_símbolo_1"/></g></g></svg>