<svg xmlns="http://www.w3.org/2000/svg" viewBox="0 0 39.54 39.58"><defs><style>.cls-1{fill:#82dd70;}.cls-2{fill:#efefef;}.cls-3{fill:none;stroke:#efefef;stroke-miterlimit:10;stroke-width:3px;}</style></defs><title>circle</title><g id="Capa_2" data-name="Capa 2"><g id="Capa_2-2" data-name="Capa 2"><circle class="cls-1" cx="19.77" cy="19.81" r="19.77" transform="translate(-1.17 1.24) rotate(-3.48)"/><path class="cls-2" d="M5,33.1,3.14,31c2.19-.13,5.62-2.6,7.93-5.33C15.19,20.79,19.18,11.17,18,0l3.3.06c1.31,12.22-3.11,22.35-7.68,27.76C10.67,31.3,8.16,32.91,5,33.1Z"/><path class="cls-3" d="M16.31.35"/><path class="cls-2" d="M35.46,33.1c-2.34,0-6-1.23-9.38-4.62C21.91,24.35,17.2,16.09,18.4.24L21.72.08c-1.1,14.58,3,22.4,6.7,26,3.13,3.11,7,4.17,8.2,4.07l-1.38,2.46C35,32.66,35.67,33.1,35.46,33.1Z"/></g></g></svg>