<svg xmlns="http://www.w3.org/2000/svg" xmlns:xlink="http://www.w3.org/1999/xlink" viewBox="0 0 41.13 37.97"><defs><style>.cls-1{fill:#a0efc2;}.cls-2{fill:#fff;}.cls-3{fill:#82dd70;}.cls-4{fill:#0fd355;}</style><symbol id="Nuevo_símbolo" data-name="Nuevo símbolo" viewBox="0 0 41.13 37.97"><path class="cls-1" d="M20.45,7.22A10.35,10.35,0,0,1,29.93.79c5.71,0,9.83,4.89,10.35,10.71a10.66,10.66,0,0,1-.34,4,17.9,17.9,0,0,1-5.46,9.1l-14,12.53L6.64,24.65a17.9,17.9,0,0,1-5.46-9.1,10.66,10.66,0,0,1-.34-4C1.37,5.68,5.48.79,11.2.79A10,10,0,0,1,20.45,7.22Z"/><path class="cls-2" d="M20.25,7.22C21.85,3.44,23.44.79,27.68.79,33.4.79,37.51,5.68,38,11.51a10.66,10.66,0,0,1-.34,4,17.9,17.9,0,0,1-5.46,9.1l-12,12.53L6.45,24.65a17.39,17.39,0,0,1-5.14-9.1,10.66,10.66,0,0,1-.34-4C1.49,5.68,5.29.79,11,.79A10,10,0,0,1,20.25,7.22Z"/><path class="cls-2" d="M1,11.51C1.49,5.68,5.61.79,11.32.79a10.05,10.05,0,0,1,1.12.07c-5.12.6-8.73,5.21-9.22,10.64a10.66,10.66,0,0,0,.34,4A17.9,17.9,0,0,0,9,24.66l11.9,12.43-.1.09-14-12.53a17.9,17.9,0,0,1-5.46-9.1A10.66,10.66,0,0,1,1,11.51Z"/><path class="cls-3" d="M20.45,38a.79.79,0,0,1-.53-.21L6.11,25.24a18.59,18.59,0,0,1-5.7-9.5A11.77,11.77,0,0,1,.07,11.4C.67,4.79,5.34,0,11.2,0a10.66,10.66,0,0,1,9.25,5.46A11.07,11.07,0,0,1,29.93,0C35.78,0,40.46,4.8,41.06,11.4a11.77,11.77,0,0,1-.35,4.33,18.59,18.59,0,0,1-5.7,9.5L21,37.77A.79.79,0,0,1,20.45,38ZM11.2,1.58c-5,0-9,4.2-9.56,10a.7.7,0,0,1,0,.08A10.28,10.28,0,0,0,2,15.37a17,17,0,0,0,5.22,8.69l13.28,12L34,24.06a17,17,0,0,0,5.21-8.69,10.23,10.23,0,0,0,.33-3.72C39,5.79,35,1.58,29.93,1.58a9.56,9.56,0,0,0-8.76,5.94.79.79,0,0,1-1.46,0A9.27,9.27,0,0,0,11.2,1.58Z"/><path class="cls-4" d="M5.53,13.51a.79.79,0,0,1-.79-.79,7.92,7.92,0,0,1,7.91-7.91.79.79,0,0,1,0,1.58,6.34,6.34,0,0,0-6.33,6.33.79.79,0,0,1-.79.79Z"/></symbol></defs><title>heart</title><g id="Capa_2" data-name="Capa 2"><g id="Capa_2-2" data-name="Capa 2"><use width="41.13" height="37.97" xlink:href="#Nuevo_símbolo"/></g></g></svg>